<?xml version="1.0" standalone="no"?>
<!DOCTYPE svg PUBLIC "-//W3C//DTD SVG 20010904//EN"
 "http://www.w3.org/TR/2001/REC-SVG-20010904/DTD/svg10.dtd">
<svg version="1.0" xmlns="http://www.w3.org/2000/svg"
 width="1000.000000pt" height="572.000000pt" viewBox="0 0 1000.000000 572.000000"
 preserveAspectRatio="xMidYMid meet">

<g transform="translate(0.000000,572.000000) scale(0.100000,-0.100000)"
fill="#000000" stroke="none">
<path d="M4810 5334 c-506 -47 -975 -233 -1360 -540 -196 -157 -424 -414 -561
-634 -173 -279 -303 -647 -350 -990 -18 -124 -18 -506 0 -630 47 -343 177
-711 350 -990 137 -220 365 -477 561 -634 202 -161 483 -318 720 -402 281 -99
512 -138 830 -138 229 -1 314 7 505 45 634 128 1210 517 1572 1063 146 220
268 495 333 750 61 240 74 356 74 621 0 265 -13 381 -74 621 -175 690 -651
1278 -1299 1604 -235 117 -475 192 -756 236 -97 15 -451 26 -545 18z m560 -89
c958 -151 1736 -856 1975 -1789 57 -224 69 -331 69 -601 0 -270 -12 -377 -69
-601 -174 -680 -641 -1255 -1270 -1564 -235 -115 -462 -187 -715 -227 -163
-25 -549 -25 -710 0 -257 41 -483 113 -715 227 -629 310 -1096 885 -1270 1564
-57 224 -70 331 -70 601 0 270 13 377 70 601 170 662 615 1223 1226 1543 259
136 539 221 864 261 108 13 494 4 615 -15z"/>
<path d="M4770 4959 c-305 -34 -671 -168 -920 -334 -496 -332 -817 -825 -925
-1420 -25 -137 -31 -461 -11 -611 82 -621 416 -1154 944 -1507 246 -164 594
-290 902 -327 138 -16 406 -14 535 5 158 22 342 70 475 122 742 290 1251 951
1341 1742 15 137 7 455 -16 581 -82 458 -291 852 -619 1168 -177 170 -334 279
-561 388 -213 102 -440 167 -677 193 -111 13 -358 12 -468 0z m1375 -995 c20
-8 45 -56 45 -88 0 -45 -420 -2150 -436 -2188 -45 -101 -128 -121 -242 -58
-34 19 -176 126 -317 238 -140 111 -261 205 -268 208 -7 2 -71 -46 -142 -107
-200 -172 -310 -259 -332 -259 -26 0 -68 47 -83 92 -6 21 -53 196 -105 388
-51 193 -95 353 -98 356 -3 3 -158 58 -346 123 -217 76 -353 128 -376 145 -64
49 -55 98 31 159 30 21 2142 841 2504 973 63 23 132 30 165 18z"/>
</g>
</svg>
